<svg width="50" height="40" viewBox="0 0 50 40" fill="none" xmlns="http://www.w3.org/2000/svg">
<path d="M48.844 4.27926V3.14579C48.8438 2.31139 48.5265 1.51125 47.962 0.921323C47.3975 0.331399 46.6319 -3.50921e-08 45.8337 0H3.01035C2.21211 -3.50921e-08 1.44655 0.331399 0.882021 0.921323C0.317495 1.51125 0.000231509 2.31139 0 3.14579V5.23568L48.844 4.27926Z" fill="#33323D"/>
<path opacity="0.1" d="M50.0001 5.39173V36.877C50.0001 37.2346 49.9327 37.5887 49.8017 37.919C49.6708 38.2494 49.4789 38.5495 49.2369 38.8023C48.995 39.0551 48.7078 39.2556 48.3917 39.3924C48.0756 39.5291 47.7369 39.5995 47.3948 39.5993H2.60619C1.91562 39.5991 1.25341 39.3122 0.76518 38.8017C0.276954 38.2912 0.00268551 37.5989 0.00268555 36.877V2.21765C1.2861 2.71594 1.2861 2.71594 2.60619 2.67396H47.3948C48.0849 2.67396 48.7467 2.96012 49.2351 3.46964C49.7236 3.97917 49.9987 4.67043 50.0001 5.39173V5.39173Z" fill="black"/>
<path d="M50.0001 5.79237V37.2777C49.9998 37.9997 49.7252 38.6922 49.2367 39.2027C48.7481 39.7132 48.0856 40 47.3948 40H2.60619C1.91562 39.9997 1.25341 39.7128 0.76518 39.2023C0.276954 38.6918 0.00268551 37.9995 0.00268555 37.2777V2.61737C1.2861 3.11475 1.2861 3.11475 2.60619 3.07368H47.3948C48.085 3.07368 48.747 3.35996 49.2355 3.86968C49.7239 4.37941 49.9989 5.07091 50.0001 5.79237V5.79237Z" fill="#504F60"/>
<path opacity="0.1" d="M49.8726 17.4328V27.5017H40.5307C39.2646 27.4839 38.0561 26.9456 37.1668 26.0034C36.2774 25.0612 35.7788 23.7908 35.7788 22.4672C35.7788 21.1436 36.2774 19.8733 37.1668 18.9311C38.0561 17.9889 39.2646 17.4506 40.5307 17.4328H49.8726Z" fill="black"/>
<path d="M50 17.1646V27.2353H40.6581C39.392 27.2175 38.1835 26.6792 37.2942 25.737C36.4049 24.7948 35.9062 23.5244 35.9062 22.2008C35.9062 20.8772 36.4049 19.6069 37.2942 18.6647C38.1835 17.7225 39.392 17.1842 40.6581 17.1664L50 17.1646Z" fill="#33323D"/>
<path opacity="0.1" d="M41.106 24.4308C42.1432 24.4308 42.984 23.5519 42.984 22.4677C42.984 21.3836 42.1432 20.5047 41.106 20.5047C40.0688 20.5047 39.228 21.3836 39.228 22.4677C39.228 23.5519 40.0688 24.4308 41.106 24.4308Z" fill="black"/>
<path d="M41.2334 24.1642C42.2706 24.1642 43.1114 23.2854 43.1114 22.2012C43.1114 21.117 42.2706 20.2382 41.2334 20.2382C40.1963 20.2382 39.3555 21.117 39.3555 22.2012C39.3555 23.2854 40.1963 24.1642 41.2334 24.1642Z" fill="white"/>
<ellipse cx="24" cy="21.5" rx="11" ry="13.5" fill="#0068C8"/>
<path d="M24.1154 21.3474C22.4107 20.948 21.8624 20.5351 21.8624 19.8921C21.8624 19.1543 22.6209 18.6398 23.8901 18.6398C25.2269 18.6398 25.7225 19.2152 25.7676 20.0613H27.4273C27.3747 18.8971 26.5862 17.8276 25.0166 17.4824V16H22.7636V17.4621C21.3067 17.7464 20.1352 18.5992 20.1352 19.9056C20.1352 21.4692 21.5696 22.2476 23.6648 22.7011C25.5423 23.1073 25.9178 23.7029 25.9178 24.3324C25.9178 24.7995 25.5498 25.5441 23.8901 25.5441C22.3431 25.5441 21.7348 24.9213 21.6522 24.1226H20C20.0901 25.605 21.3217 26.4375 22.7636 26.7151V28.1839H25.0166V26.7286C26.481 26.4782 27.6451 25.7133 27.6451 24.3257C27.6451 22.4033 25.8202 21.7467 24.1154 21.3474Z" fill="white"/>
</svg>
